<?xml version="1.0" encoding="UTF-8"?>
<svg version="1.1" xmlns="http://www.w3.org/2000/svg" width="48" height="48">
<path d="M0 0 C11.88 0 23.76 0 36 0 C36 8.58 36 17.16 36 26 C31.05 26 26.1 26 21 26 C21 26.99 21 27.98 21 29 C23.64 29 26.28 29 29 29 C29 29.99 29 30.98 29 32 C21.74 32 14.48 32 7 32 C7 31.01 7 30.02 7 29 C9.64 29 12.28 29 15 29 C15 28.01 15 27.02 15 26 C10.05 26 5.1 26 0 26 C0 17.42 0 8.84 0 0 Z " fill="#8BC34A" transform="translate(6,8)"/>
<path d="M0 0 C11.88 0 23.76 0 36 0 C36 8.58 36 17.16 36 26 C31.05 26 26.1 26 21 26 C21 26.99 21 27.98 21 29 C23.64 29 26.28 29 29 29 C29 29.99 29 30.98 29 32 C21.74 32 14.48 32 7 32 C7 31.01 7 30.02 7 29 C9.64 29 12.28 29 15 29 C15 28.01 15 27.02 15 26 C10.05 26 5.1 26 0 26 C0 17.42 0 8.84 0 0 Z M2 2 C2 8.93 2 15.86 2 23 C12.56 23 23.12 23 34 23 C34 16.07 34 9.14 34 2 C23.44 2 12.88 2 2 2 Z " fill="#546E7A" transform="translate(6,8)"/>
<path d="M0 0 C1.98 0 3.96 0 6 0 C6 0.99 6 1.98 6 3 C8.64 3 11.28 3 14 3 C14 3.99 14 4.98 14 6 C6.74 6 -0.52 6 -8 6 C-8 5.01 -8 4.02 -8 3 C-5.36 3 -2.72 3 0 3 C0 2.01 0 1.02 0 0 Z " fill="#455A64" transform="translate(21,34)"/>
<path d="M0 0 C0.66 0 1.32 0 2 0 C2.33 0.99 2.66 1.98 3 3 C1.88121617 4.17262904 0.75476949 5.33795138 -0.375 6.5 C-1.00148438 7.1496875 -1.62796875 7.799375 -2.2734375 8.46875 C-4 10 -4 10 -6 10 C-7.6875 8.1875 -7.6875 8.1875 -9 6 C-8.67 5.01 -8.34 4.02 -8 3 C-7.13375 3.37125 -7.13375 3.37125 -6.25 3.75 C-5.5075 3.8325 -4.765 3.915 -4 4 C-1.85410577 2.10413616 -1.85410577 2.10413616 0 0 Z " fill="#E3F0D3" transform="translate(27,15)"/>
</svg>
