<?xml version="1.0" encoding="UTF-8"?>
<svg version="1.1" xmlns="http://www.w3.org/2000/svg" width="48" height="48">
<path d="M0 0 C4.96628434 -0.02290956 9.93238663 -0.04283643 14.89868164 -0.05493164 C16.58944316 -0.0599719 18.28020029 -0.06680405 19.97094727 -0.07543945 C22.39600707 -0.08751857 24.82100944 -0.09323123 27.24609375 -0.09765625 C28.38672523 -0.10539818 28.38672523 -0.10539818 29.55039978 -0.11329651 C31.3673257 -0.11349238 33.18413127 -0.06197277 35 0 C36 1 36 1 36.11352539 4.14282227 C36.11327441 5.53402696 36.10771709 6.92523791 36.09765625 8.31640625 C36.09664917 8.96411987 36.09564209 9.6118335 36.09460449 10.2791748 C36.08935843 12.70696779 36.07539725 15.13473561 36.0625 17.5625 C36.041875 22.986875 36.02125 28.41125 36 34 C24.12 34 12.24 34 0 34 C0 22.78 0 11.56 0 0 Z " fill="#CDD6DB" transform="translate(6,7)"/>
<path d="M0 0 C11.88 0 23.76 0 36 0 C36 1.98 36 3.96 36 6 C24.12 6 12.24 6 0 6 C0 4.02 0 2.04 0 0 Z " fill="#8FA4AE" transform="translate(6,35)"/>
<path d="M0 0 C1.32 0 2.64 0 4 0 C4 3.3 4 6.6 4 10 C2.68 10 1.36 10 0 10 C0 6.7 0 3.4 0 0 Z " fill="#778C96" transform="translate(22,14)"/>
</svg>
