<?xml version="1.0" encoding="UTF-8"?>
<svg version="1.1" xmlns="http://www.w3.org/2000/svg" width="48" height="48">
<path d="M0 0 C10.56 0 21.12 0 32 0 C32.06887641 4.64533122 32.12860425 9.28889112 32.16479492 13.93432617 C32.17988094 15.51446536 32.2003525 17.09456269 32.22631836 18.67456055 C32.26271126 20.94590585 32.27972762 23.21669759 32.29296875 25.48828125 C32.30845261 26.19463211 32.32393646 26.90098297 32.33988953 27.6287384 C32.34083412 30.38197297 32.27249346 32.51061772 30.91723633 34.94458008 C27.96311178 36.57079687 25.38235504 36.3894659 22.03125 36.3984375 C21.35453247 36.40130768 20.67781494 36.40417786 19.98059082 36.40713501 C18.55166791 36.40917397 17.12271698 36.40365569 15.69384766 36.39111328 C13.50750275 36.37505511 11.32300621 36.39096534 9.13671875 36.41015625 C7.74739176 36.40817379 6.35806591 36.40433004 4.96875 36.3984375 C3.70482422 36.39505371 2.44089844 36.39166992 1.13867188 36.38818359 C-2 36 -2 36 -3.92382812 34.64306641 C-5.40558606 32.38076357 -5.21432501 30.64334174 -5 28 C-3.35 28 -1.7 28 0 28 C0 18.76 0 9.52 0 0 Z " fill="#8FC9F9" transform="translate(8,6)"/>
<path d="M0 0 C8.25 0 16.5 0 25 0 C25.99 2.64 26.98 5.28 28 8 C23.89596637 8.08694042 19.79216871 8.14037149 15.6875 8.1875 C13.93663086 8.22520508 13.93663086 8.22520508 12.15039062 8.26367188 C11.03212891 8.27333984 9.91386719 8.28300781 8.76171875 8.29296875 C7.73006592 8.3086792 6.69841309 8.32438965 5.63549805 8.34057617 C3 8 3 8 1.13989258 6.79418945 C0 5 0 5 0 0 Z " fill="#42A5F5" transform="translate(3,34)"/>
</svg>
