<?xml version="1.0" encoding="UTF-8"?>
<svg version="1.1" xmlns="http://www.w3.org/2000/svg" width="48" height="48">
<path d="M0 0 C2.64 0 5.28 0 8 0 C8 2.64 8 5.28 8 8 C10.31 8 12.62 8 15 8 C12.37288552 12.94515667 8.73354706 16.87775489 5 21 C1.14561649 19.48081731 -0.73605496 17.17304038 -3.25 13.9375 C-3.95640625 13.03902344 -4.6628125 12.14054687 -5.390625 11.21484375 C-7 9 -7 9 -7 8 C-4.69 8 -2.38 8 0 8 C0 5.36 0 2.72 0 0 Z " fill="#1565BF" transform="translate(20,16)"/>
<path d="M0 0 C11.88 0 23.76 0 36 0 C36 1.32 36 2.64 36 4 C24.12 4 12.24 4 0 4 C0 2.68 0 1.36 0 0 Z " fill="#1565C0" transform="translate(6,40)"/>
<path d="M0 0 C2.64 0 5.28 0 8 0 C8 1.32 8 2.64 8 4 C5.36 4 2.72 4 0 4 C0 2.68 0 1.36 0 0 Z " fill="#1565C0" transform="translate(20,10)"/>
<path d="M0 0 C2.64 0 5.28 0 8 0 C8 1.32 8 2.64 8 4 C5.36 4 2.72 4 0 4 C0 2.68 0 1.36 0 0 Z " fill="#1565C0" transform="translate(20,4)"/>
</svg>
