<?xml version="1.0" encoding="UTF-8"?>
<svg version="1.1" xmlns="http://www.w3.org/2000/svg" width="48" height="48">
<path d="M0 0 C11.88 0 23.76 0 36 0 C36 11.88 36 23.76 36 36 C24.12 36 12.24 36 0 36 C0 24.12 0 12.24 0 0 Z " fill="#ECEFF1" transform="translate(6,6)"/>
<path d="M0 0 C11.88 0 23.76 0 36 0 C36 11.88 36 23.76 36 36 C24.12 36 12.24 36 0 36 C0 24.12 0 12.24 0 0 Z M2 7 C2 15.91 2 24.82 2 34 C12.56 34 23.12 34 34 34 C34 25.09 34 16.18 34 7 C23.44 7 12.88 7 2 7 Z " fill="#64B0F1" transform="translate(6,6)"/>
</svg>
